<?xml version="1.0" encoding="iso-8859-1"?>
<!-- Generator: Adobe Illustrator 19.0.0, SVG Export Plug-In . SVG Version: 6.00 Build 0)  -->
<svg version="1.1" id="Layer_1" xmlns="http://www.w3.org/2000/svg" xmlns:xlink="http://www.w3.org/1999/xlink" x="0px" y="0px"
	 viewBox="0 0 512 512" style="enable-background:new 0 0 512 512;" xml:space="preserve">
<g>
	<g>
		<path d="M19.799,358.708v36.537c0,10.345,8.387,18.732,18.732,18.732h38.075v-55.269H19.799z"/>
	</g>
</g>
<g>
	<g>
		<path d="M345.666,58.206h-3.167V18.732C342.499,8.387,334.113,0,323.768,0H188.232c-10.345,0-18.732,8.387-18.732,18.732v39.474
			h-3.167c-80.014,0-146.534,64.79-146.534,146.534v116.505h56.807V194.563c0-10.345,8.387-18.732,18.732-18.732
			s18.732,8.387,18.732,18.732c0,12.619,0.001,286.086,0.001,298.706c0,10.345,8.387,18.732,18.732,18.732h104.466V95.67h37.463V512
			h104.466c10.345,0,18.732-8.387,18.732-18.732c0-12.93,0.001-286.223,0.001-298.706c0-10.345,8.387-18.732,18.732-18.732
			s18.732,8.387,18.732,18.732v126.683h56.807V204.74C492.201,123,425.684,58.206,345.666,58.206z M305.036,58.206
			c-11.903,0-89.463,0-98.072,0V37.463h98.072V58.206z"/>
	</g>
</g>
<g>
	<g>
		<path d="M435.394,358.708v55.269h38.075c10.345,0,18.732-8.387,18.732-18.732v-36.537H435.394z"/>
	</g>
</g>
<g>
</g>
<g>
</g>
<g>
</g>
<g>
</g>
<g>
</g>
<g>
</g>
<g>
</g>
<g>
</g>
<g>
</g>
<g>
</g>
<g>
</g>
<g>
</g>
<g>
</g>
<g>
</g>
<g>
</g>
</svg>
